# xmcd
#
# Track frame offsets:
#	150
#	11630
#	22797
#	34660
#	49650
#	61149
#	73980
#	86584
#	99519
#	112253
#	128593
#	150644
#	167394
#	180956
#	197168
#	208791
#	220841
#	234644
#	245666
#	258229
#
# Disc length: 3578 seconds
#
# Revision: 1
# Processed by: cddbd v1.5.2PL0 Copyright (c) Steve Scherf et al.
# Submitted via: Antz-MP3Processor 1.0.0
#
DISCID=0c0df814
DTITLE=Various Artist - Sweet Soul and Blues Ballads
DYEAR=1900
DGENRE=
TTITLE0=Sam and Dave - Soul Man
TTITLE1=Screaming Jay Hawkins - I Put A Spell on You
TTITLE2=Erma Franklin - A Little Piece of My Heart
TTITLE3=Al Green - Let's Stay Together
TTITLE4=John Lee Hooker - Boom Boom
TTITLE5=Dianah Washington - Mad About the Boy
TTITLE6=Bob and Earl - Harlem Shuffle
TTITLE7=Muddy Waters - Hoochie Coochie Man
TTITLE8=Fontella Bass - Rescue Me
TTITLE9=James Brown - It's A Man's World
TTITLE10=Buddy Guy - Mustang Sally
TTITLE11=Nina Simone - My Baby Just Cares For Me
TTITLE12=Percy Sledge - When A Man Loves A Woman
TTITLE13=B. B. King - Ain't Nobody Home
TTITLE14=Otis Redding - These Arms Are Mine
TTITLE15=Drifters, (The) - Under the Boardwalk
TTITLE16=Ben E. King and the Drifters - Stand by Me
TTITLE17=Howlin' Wolf, (The) - Little Red Rooster
TTITLE18=Sam Cooke - You Send Me
TTITLE19=Aretha Franklin - Think
EXTD=
EXTT0=
EXTT1=
EXTT2=
EXTT3=
EXTT4=
EXTT5=
EXTT6=
EXTT7=
EXTT8=
EXTT9=
EXTT10=
EXTT11=
EXTT12=
EXTT13=
EXTT14=
EXTT15=
EXTT16=
EXTT17=
EXTT18=
EXTT19=
PLAYORDER=
